<svg id="ball" class="ball" viewBox="0 0 1365 1024" version="1.1" xmlns="http://www.w3.org/2000/svg" width="400" height="400">
  <path d="M647.937 1023.573c-40.96 0-82.133-5.12-122.24-14.933-66.773-16.427-128.427-45.44-183.04-86.4-52.693-39.467-96.853-88.107-131.2-144.853-34.347-56.747-56.96-118.4-67.2-183.467-10.88-67.413-7.893-135.467 8.533-202.24 14.08-56.747 37.334-110.293 69.12-158.72 30.934-46.72 69.12-88.107 113.707-122.453 44.16-34.134 93.227-60.587 145.92-78.934 53.547-18.56 109.44-27.946 165.973-27.946 40.96 0 82.134 5.12 122.24 14.933 66.774 16.427 128.427 45.44 183.04 86.4 52.694 39.467 96.854 88.107 131.2 144.853 34.347 56.747 56.96 118.4 67.2 183.467 10.88 67.413 7.894 135.467-8.533 202.24-14.08 56.747-37.333 110.293-69.12 158.72-30.933 46.72-69.12 88.107-113.707 122.453-44.16 34.134-93.226 60.587-145.92 78.934-53.76 18.56-109.44 27.946-165.973 27.946z m-0.853-997.12c-224.427 0-418.774 152.32-472.534 370.56-64.213 260.694 95.574 525.227 356.48 589.44 38.4 9.387 77.654 14.294 116.907 14.294 224.427 0 418.773-152.32 472.533-370.56 31.147-126.294 11.094-257.28-56.106-368.64C996.95 150.187 890.497 71.68 763.99 40.533c-38.4-9.173-77.653-14.08-116.906-14.08z m113.28 13.654L604.417 676.48" fill="#333333" p-id="1802"></path>
  <path d="M749.27 37.547l21.974 5.333L615.51 679.04l-21.973-5.333L749.27 37.547zM628.95 522.24L281.43 845.867" fill="#333333" p-id="1803"></path>
  <path d="M621.27 513.92l15.36 16.64-347.306 323.627-15.36-16.64L621.27 513.92z m521.814 18.133l-662.187-35.626" fill="#333333" p-id="1804"></path>
  <path d="M481.537 485.12l662.187 35.627-1.28 22.613-662.187-35.627 1.28-22.613z m314.667 496.64L603.99 374.613" fill="#333333" p-id="1805"></path>
  <path d="M614.87 371.2l192.214 607.147-21.547 6.826-192.213-607.146 21.546-6.827z m-397.44-63.147l581.334 268.16" fill="#333333" p-id="1806"></path>
  <path d="M222.124 297.813l581.546 268.16-9.386 20.48-581.76-267.946 9.6-20.694z m0 0" fill="#333333" p-id="1807"></path>
  <path d="M364.844 376.747L336.47 135.253l-11.306-2.346C247.51 198.4 189.057 288.213 162.817 394.453c-6.613 26.667-10.88 53.76-13.013 81.28l215.04-98.986z m47.573 351.573L178.39 684.16c45.44 124.16 139.52 228.693 264.96 284.587L412.417 728.32z m177.707 273.92l4.693 7.04c136.32 14.507 268.587-28.373 369.493-111.573l-221.013-84.694-153.173 189.227z m376.96-472.107l125.866 205.654c16-32.214 28.587-66.56 37.547-102.827 23.68-96.213 17.707-192.64-12.16-279.893L967.084 530.133zM562.39 22.4l156.8 183.253 223.787-93.013C891.564 74.667 832.044 45.867 765.91 29.653 697.004 12.8 628.097 11.093 562.39 22.4z m155.094 699.307l128.426-206.72-156.8-186.027-225.28 91.733 17.707 242.56 235.947 58.454z m0 0" fill="#333333" p-id="1808"></path>
</svg>


