<svg id="gate" class="gate" viewBox="0 0 1024 1024" version="1.1" xmlns="http://www.w3.org/2000/svg" width="400" height="400">
  <path d="M861.414041 192.806237 179.968861 192.806237c-51.828412 0-93.985558 42.164309-93.985558 93.985558l0 514.915399 61.975517 0 0-0.276293 0.796132 0.650823 74.704422-89.905636 597.571934 0 72.39482 87.839581 0 1.691525 62.007239 0L955.433368 286.791795C955.432345 234.970546 913.228127 192.806237 861.414041 192.806237zM199.153806 689.236634l-51.196009 61.657268L147.957797 286.791795c0-2.625804 0.422625-5.13802 0.992607-7.584746l50.203402 55.610552L199.153806 689.236634zM232.481865 678.848029l0-10.380418 10.389628 10.380418L232.481865 678.848029zM270.460852 678.848029l-37.978986-37.945217 0-0.276293 38.075177-38.092573 38.238906 38.22151-38.092573 38.092573L270.460852 678.848029zM672.79108 484.770845l-38.173414 38.213323-38.222533-38.213323 38.222533-38.255279L672.79108 484.770845zM648.403646 432.737772l38.207184-38.20616 38.220487 38.20616-38.220487 38.238906L648.403646 432.737772zM582.609151 470.976678l-38.222533-38.238906 38.222533-38.20616 38.238906 38.20616L582.609151 470.976678zM568.806797 484.770845l-38.222533 38.213323-38.238906-38.213323 38.238906-38.255279L568.806797 484.770845zM478.576773 470.976678l-38.190811-38.238906 38.190811-38.20616 38.222533 38.20616L478.576773 470.976678zM464.821491 484.770845l-38.205137 38.213323-38.222533-38.213323 38.222533-38.255279L464.821491 484.770845zM374.575094 470.976678l-38.190811-38.238906 38.190811-38.20616 38.238906 38.20616L374.575094 470.976678zM360.789113 484.770845l-38.207184 38.213323-38.222533-38.213323 38.222533-38.255279L360.789113 484.770845zM360.789113 588.756151l-38.207184 38.222533-38.222533-38.222533 38.222533-38.205137L360.789113 588.756151zM336.384283 536.762987l38.190811-38.228673 38.238906 38.228673-38.238906 38.207184L336.384283 536.762987zM426.616354 550.551014l38.205137 38.205137-38.205137 38.222533-38.222533-38.222533L426.616354 550.551014zM440.385962 536.762987l38.190811-38.228673 38.222533 38.228673-38.222533 38.207184L440.385962 536.762987zM530.584264 550.551014l38.222533 38.205137-38.222533 38.222533-38.238906-38.222533L530.584264 550.551014zM544.387641 536.762987l38.222533-38.228673 38.238906 38.228673-38.238906 38.207184L544.387641 536.762987zM634.617665 550.551014l38.173414 38.205137-38.173414 38.222533-38.222533-38.222533L634.617665 550.551014zM648.403646 536.762987l38.207184-38.228673 38.220487 38.228673-38.220487 38.207184L648.403646 536.762987zM738.619344 550.551014l38.222533 38.205137-38.222533 38.222533-38.238906-38.222533L738.619344 550.551014zM700.380438 484.770845l38.238906-38.255279 38.222533 38.255279-38.222533 38.213323L700.380438 484.770845zM700.380438 380.746654l28.857235-28.866445c1.251503-1.235131 1.917676-2.723018 2.357697-4.299933l20.499893 0c0.440022 1.576915 1.13894 3.064802 2.357697 4.299933l25.590841 25.598005-41.425482 41.473577L700.380438 380.746654zM686.61083 366.958626l-19.396769-19.378349 38.757722 0L686.61083 366.958626zM672.79108 380.746654l-38.173414 38.205137-38.222533-38.205137 28.857235-28.866445c1.203408-1.235131 1.853208-2.723018 2.340301-4.299933l13.997805 0c0.456395 1.576915 1.122567 3.064802 2.390443 4.299933L672.79108 380.746654zM582.609151 366.958626l-19.396769-19.378349 38.743396 0L582.609151 366.958626zM568.806797 380.746654l-38.222533 38.205137-38.238906-38.205137 28.874631-28.866445c1.251503-1.235131 1.934049-2.723018 2.38942-4.299933l13.982456 0c0.437975 1.576915 1.153266 3.064802 2.37407 4.299933L568.806797 380.746654zM478.576773 366.958626l-19.363-19.378349 38.757722 0L478.576773 366.958626zM464.821491 380.746654l-38.205137 38.205137-38.222533-38.205137 28.857235-28.866445c1.218758-1.235131 1.901303-2.723018 2.323928-4.299933l14.014178 0c0.456395 1.576915 1.121544 3.064802 2.357697 4.299933L464.821491 380.746654zM374.575094 366.958626l-19.363-19.378349 38.757722 0L374.575094 366.958626zM360.789113 380.746654l-38.207184 38.205137-41.457204-41.473577 25.589818-25.598005c1.251503-1.235131 1.951445-2.723018 2.357697-4.299933l20.533662 0c0.422625 1.576915 1.088798 3.064802 2.325975 4.299933L360.789113 380.746654zM267.322371 363.691209l-16.095583-16.109909 32.223912 0L267.322371 363.691209zM253.552763 377.478214l-21.070898 21.053502 0-42.074258L253.552763 377.478214zM267.322371 391.281591l41.473577 41.457204-38.238906 38.238906-38.075177-38.10076 0-6.763031L267.322371 391.281591zM256.787434 484.770845l-24.305569 24.281009L232.481865 460.449927 256.787434 484.770845zM270.557042 498.534314l38.238906 38.228673-38.238906 38.207184-38.075177-38.083363 0-0.252757L270.557042 498.534314zM256.787434 588.756151l-24.305569 24.297382 0-48.586578L256.787434 588.756151zM298.293757 678.848029l24.288173-24.297382 24.305569 24.297382L298.293757 678.848029zM374.461507 678.848029l-38.077224-38.092573 38.190811-38.22151 38.238906 38.22151-38.125319 38.092573L374.461507 678.848029zM402.26269 678.848029l24.354688-24.297382 24.239054 24.297382L402.26269 678.848029zM478.478536 678.848029l-38.092573-38.092573 38.190811-38.22151 38.222533 38.22151-38.108946 38.092573L478.478536 678.848029zM506.295068 678.848029l24.289196-24.297382 24.320918 24.297382L506.295068 678.848029zM582.494541 678.848029l-38.1069-38.092573 38.222533-38.22151 38.238906 38.22151-38.157042 38.092573L582.494541 678.848029zM610.246605 678.848029l24.37106-24.297382 24.305569 24.297382L610.246605 678.848029zM686.49622 678.848029l-38.092573-38.092573 38.207184-38.22151 38.220487 38.22151-38.1069 38.092573L686.49622 678.848029zM714.296379 678.848029l24.322965-24.297382 24.272823 24.297382L714.296379 678.848029zM804.413839 665.166425l-13.70514 13.681604-0.210801 0-38.125319-38.092573 38.222533-38.22151 13.81975 13.811564L804.414863 665.166425zM804.413839 588.780711l-0.016373-0.024559 0.016373-0.016373L804.413839 588.780711zM804.413839 561.158606l-13.81975 13.811564-38.222533-38.207184 38.222533-38.228673 13.81975 13.809517L804.413839 561.158606zM804.413839 484.770845l-0.016373 0 0.016373-0.033769L804.413839 484.770845zM804.413839 457.156928l-13.81975 13.81975-38.222533-38.238906 41.48995-41.457204 10.55131 10.558473L804.412816 457.156928zM804.413839 353.148086l-10.55131 10.543124-16.160051-16.109909 26.711362 0L804.413839 353.148086zM810.851459 314.243007 227.264027 314.243007l-54.593386-58.536184c2.340301-0.544399 4.762467-0.902556 7.29822-0.902556l681.44518 0c0.730641 0 1.36509 0.146333 2.081405 0.194428L810.851459 314.243007zM893.425106 747.601926l-55.682183-67.542302L837.742922 334.818625l53.147454-60.47228c1.62501 3.805676 2.535753 8.024767 2.535753 12.446473L893.426129 747.601926z" fill="#e6e6e6"></path>
</svg>


