<svg class="people" viewBox="0 0 1024 1024" version="1.1" xmlns="http://www.w3.org/2000/svg" width="400" height="400">
  <path d="M563.240423 102.320551m-102.320551 0a102.320551 102.320551 0 1 0 204.641102 0 102.320551 102.320551 0 1 0-204.641102 0Z" fill="#e6e6e6"></path>
  <path d="M322.895467 827.809372c-8.907907 20.054828-155.767992 195.805422-155.767992 195.805421h122.447605s106.292996-119.58263 113.924906-134.027884 38.954036-122.784661 38.954035-122.784661l-74.633813-83.469495s-36.113136 124.397715-44.924741 144.476619z" fill="#e6e6e6"></path>
  <path d="M837.50765 515.815955c0-0.409282-90.571744-32.718501-102.609456-37.533586s-29.684998-14.445254-38.520678-32.911104-29.083112-75.957962-44.130252-99.503727c-9.10051-14.228575-57.781017-92.425552-157.284743-88.284579-49.860203 2.094562-175.750594 47.019303-207.506078 65.003644-47.693415 27.301531-124.542167 159.427456-124.542167 159.427457A50.895446 50.895446 0 1 0 247.033807 539.289493s68.927938-109.90431 85.877036-125.192204c19.934451-17.815814 81.302706-35.824231 92.955211-37.076152 6.572591-0.722263-36.907625 163.712882-36.907624 194.216443s3.707615 45.743305 37.557661 83.469495 133.377848 142.045 142.189453 158.103308 78.726636 211.189617 78.726636 211.189617h106.726353s-52.171443-195.805422-85.877036-255.199492c-39.002187-68.735335-125.192204-153.288223-128.394235-166.914913s36.113136-172.548562 36.113135-172.548563 31.298051 72.226271 44.948816 87.466015a255.512473 255.512473 0 0 0 58.599582 47.356359c19.04366 10.882092 98.299955 38.520678 125.481109 46.176662a49.571298 49.571298 0 0 0 5.754026 1.516752 12.663673 12.663673 0 0 0 3.226107 0.505584 49.956504 49.956504 0 0 0 23.497613-96.518374z" fill="#e6e6e6"></path>
</svg>


